<svg width="153" height="153" xmlns="http://www.w3.org/2000/svg" xmlns:xlink="http://www.w3.org/1999/xlink" overflow="hidden"><defs><clipPath id="clip0"><rect x="258" y="264" width="153" height="153"/></clipPath></defs><g clip-path="url(#clip0)" transform="translate(-258 -264)"><path d="M334.46 283.974C358.884 283.974 377.96 299.211 377.96 330.998 370.698 364.89 334.46 396.974 334.46 396.974 334.46 396.974 298.222 363.492 290.96 330.998 290.96 299.211 310.036 283.974 334.46 283.974Z" fill="#EB494B" fill-rule="evenodd"/><path d="M334.46 297.974C349.646 297.974 361.96 310.288 361.96 325.474 361.96 340.66 349.646 352.974 334.46 352.974 319.274 352.974 306.96 340.66 306.96 325.474 306.96 310.288 319.274 297.974 334.46 297.974Z" fill="#C20E11" fill-rule="evenodd"/><path d="M334.96 310.974C343.231 310.974 349.96 317.464 349.96 325.474 349.96 333.484 343.231 339.974 334.96 339.974 326.674 339.974 319.96 333.484 319.96 325.474 319.96 317.464 326.674 310.974 334.96 310.974Z" fill="#FFFFFF" fill-rule="evenodd"/></g></svg>