<svg width="896" height="894" xmlns="http://www.w3.org/2000/svg" xmlns:xlink="http://www.w3.org/1999/xlink" xml:space="preserve" overflow="hidden"><g transform="translate(-1485 -1118)"><path d="M2225.41 1532.23 2065.7 1480.28 2116.74 1381.31 2017.21 1432.02 1965.8 1271.56 1944.69 1206.15 1932.03 1165 1918.31 1207.2 1898.26 1272.62 1847.77 1432.3 1748.4 1381.31 1799.27 1480.8 1639.7 1531.19 1573.21 1551.24 1531 1564.95 1573.21 1578.67 1637.59 1599.77 1798.51 1650.41 1747.34 1749.64 1846.4 1697.45 1897.2 1858.38 1917.25 1923.8 1930.97 1966 1944.69 1923.8 1965.8 1858.38 2017.51 1696.95 2116.71 1748.65 2065.76 1649.99 2224.36 1598.72 2289.79 1577.62 2332 1563.91 2290.84 1552.3ZM2217.88 1578.66 2055.98 1630.93 2034.76 1589.85C2032.64 1599.12 2029.26 1608.07 2024.73 1616.43L2067.42 1699.06 1985.91 1656.58C1978.11 1661.25 1969.74 1664.9 1961 1667.41L1998.51 1686.97 1945.75 1851.87 1931.16 1897.06 1917.36 1852 1865.38 1687.46 1903.31 1667.47C1894.58 1664.99 1886.21 1661.38 1878.41 1656.74L1796.83 1699.73 1839.58 1616.77C1835.02 1608.46 1831.62 1599.56 1829.46 1590.34L1808.35 1631.33 1644.17 1579.73 1599.91 1565.23 1646.03 1551.35 1808.99 1499.89 1829.74 1540.48C1832.01 1531.35 1835.49 1522.57 1840.1 1514.37L1796.96 1429.96 1881.55 1473.36C1889.93 1468.82 1898.89 1465.43 1908.18 1463.3L1866.81 1442.07 1918.46 1278.8 1931.86 1235.04 1945.75 1278 1998.16 1441.73 1955.83 1463.29C1965.14 1465.42 1974.13 1468.81 1982.53 1473.37L2068.01 1429.85 2024.24 1514.71C2028.81 1522.94 2032.26 1531.74 2034.49 1540.89L2055.95 1499.28 2219.26 1552.41 2260.24 1564.98Z" stroke="#61CBF4" stroke-width="27.5" stroke-miterlimit="8" fill="#8ED973" fill-rule="evenodd"/></g></svg>