<svg width="682" height="124" xmlns="http://www.w3.org/2000/svg" xmlns:xlink="http://www.w3.org/1999/xlink" xml:space="preserve" overflow="hidden"><defs><clipPath id="clip0"><rect x="1311" y="405" width="682" height="124"/></clipPath></defs><g clip-path="url(#clip0)" transform="translate(-1311 -405)"><path d="M1891.63 460.601C1890.69 460.798 1889.84 461.192 1889.09 461.783 1888.38 462.61 1887.95 463.535 1887.79 464.559 1887.59 465.622 1887.67 466.665 1888.02 467.689L1898.68 485.645 1913.3 509.508 1913.3 509.449C1915.9 512.875 1919.13 515.513 1923 517.364 1926.91 519.175 1930.99 520.002 1935.25 519.845 1933.24 518.152 1931.46 516.222 1929.93 514.056L1914.95 489.662 1908.62 479.03C1907.67 479.542 1906.67 479.68 1905.6 479.443 1904.54 479.207 1903.71 478.617 1903.12 477.671ZM1499.61 456.762 1482.27 457.234 1482.27 500.294 1493.16 500.294C1497.46 500.294 1499.61 498.089 1499.61 493.678ZM1741.12 456.644 1741.12 500.294 1758.46 500.294 1758.46 456.644ZM1371.34 456.644 1371.34 500.294 1388.68 500.294 1388.68 456.644ZM1547.77 456.289 1547.77 473.596 1564.7 473.596 1564.7 456.289ZM1778.44 449.733 1786.19 449.733 1786.19 500.176 1803.65 499.703 1803.65 449.733 1811.41 449.733 1811.41 507.205 1803.65 507.205 1803.65 505.61C1800.5 506.043 1797.36 506.456 1794.24 506.85 1790.45 507.323 1787.32 507.559 1784.83 507.559 1780.57 507.559 1778.44 505.433 1778.44 501.18ZM1739.87 449.733 1759.64 449.733C1764.1 449.733 1766.33 451.958 1766.33 456.407L1766.33 500.53C1766.33 504.98 1764.1 507.205 1759.64 507.205L1739.87 507.205C1735.45 507.205 1733.25 504.98 1733.25 500.53L1733.25 456.407C1733.25 451.958 1735.45 449.733 1739.87 449.733ZM1692.95 449.733 1701.06 449.733 1710.89 494.978 1720.83 449.733 1728.7 449.733 1714.85 506.732 1709.11 529 1701.36 529 1707.16 506.732ZM1636.92 449.733 1654.73 449.733C1659.19 449.733 1661.42 451.958 1661.42 456.407L1661.42 467.866 1653.79 467.866 1653.79 456.526 1637.87 456.526 1637.87 466.567 1658.64 483.401C1660.57 484.937 1661.54 487.024 1661.54 489.662L1661.54 500.53C1661.54 504.98 1659.31 507.205 1654.85 507.205L1636.8 507.205C1632.34 507.205 1630.11 504.98 1630.11 500.53L1630.11 487.476 1637.87 487.476 1637.87 500.412 1653.79 500.412 1653.79 488.953 1633.19 472.119C1631.22 470.544 1630.23 468.496 1630.23 465.976L1630.23 456.407C1630.23 451.958 1632.46 449.733 1636.92 449.733ZM1591.73 449.733 1609.54 449.733C1614 449.733 1616.23 451.958 1616.23 456.407L1616.23 467.866 1608.59 467.866 1608.59 456.526 1592.67 456.526 1592.67 466.567 1613.45 483.401C1615.38 484.937 1616.35 487.024 1616.35 489.662L1616.35 500.53C1616.35 504.98 1614.12 507.205 1609.66 507.205L1591.61 507.205C1587.15 507.205 1584.92 504.98 1584.92 500.53L1584.92 487.476 1592.67 487.476 1592.67 500.412 1608.59 500.412 1608.59 488.953 1588 472.119C1586.02 470.544 1585.04 468.496 1585.04 465.976L1585.04 456.407C1585.04 451.958 1587.27 449.733 1591.73 449.733ZM1546.77 449.733 1565.71 449.733C1570.12 449.733 1572.33 451.958 1572.33 456.407L1572.33 477.081 1569.67 479.857 1547.77 479.857 1547.77 500.648 1564.7 500.648 1564.7 490.134 1572.33 490.134 1572.33 500.53C1572.33 504.98 1570.12 507.205 1565.71 507.205L1546.77 507.205C1542.35 507.205 1540.14 504.98 1540.14 500.53L1540.14 456.407C1540.14 451.958 1542.35 449.733 1546.77 449.733ZM1415.05 449.733 1432.87 449.733C1437.33 449.733 1439.55 451.958 1439.55 456.407L1439.55 467.866 1431.92 467.866 1431.92 456.526 1416 456.526 1416 466.567 1436.77 483.401C1438.71 484.937 1439.67 487.024 1439.67 489.662L1439.67 500.53C1439.67 504.98 1437.44 507.205 1432.99 507.205L1414.93 507.205C1410.48 507.205 1408.25 504.98 1408.25 500.53L1408.25 487.476 1416 487.476 1416 500.412 1431.92 500.412 1431.92 488.953 1411.32 472.119C1409.35 470.544 1408.37 468.496 1408.37 465.976L1408.37 456.407C1408.37 451.958 1410.59 449.733 1415.05 449.733ZM1370.09 449.733 1389.86 449.733C1394.32 449.733 1396.55 451.958 1396.55 456.407L1396.55 500.53C1396.55 504.98 1394.32 507.205 1389.86 507.205L1370.09 507.205C1365.68 507.205 1363.47 504.98 1363.47 500.53L1363.47 456.407C1363.47 451.958 1365.68 449.733 1370.09 449.733ZM1898.68 444.062C1897.89 444.299 1897.16 444.634 1896.49 445.067 1895.86 445.854 1895.44 446.74 1895.24 447.725 1895.13 448.749 1895.24 449.733 1895.6 450.678 1895.88 451.19 1896.11 451.643 1896.31 452.037 1896.51 452.43 1896.68 452.765 1896.84 453.041L1896.9 453.1 1902.88 462.078C1903.35 459.558 1904.46 457.353 1906.19 455.462ZM1908.44 430.241C1907.53 430.162 1906.67 430.32 1905.84 430.714 1905.21 431.068 1904.67 431.56 1904.24 432.19 1903.85 432.781 1903.59 433.45 1903.47 434.198 1903.35 435.025 1903.51 435.813 1903.94 436.561L1910.28 446.13C1910.43 444.279 1910.97 442.547 1911.87 440.932 1912.82 439.318 1914.06 437.999 1915.6 436.975 1915.72 436.896 1915.94 436.797 1916.25 436.679 1916.41 436.6 1916.55 436.522 1916.67 436.443 1915.52 436.286 1914.58 435.754 1913.83 434.848L1911.22 431.481C1911.14 431.363 1911.05 431.226 1910.93 431.068 1910.18 430.595 1909.35 430.32 1908.44 430.241ZM1949.34 428.292C1948.55 428.292 1947.84 428.528 1947.21 429.001 1946.54 429.434 1946.04 430.005 1945.73 430.714 1946.36 431.698 1947.05 432.791 1947.8 433.992 1948.55 435.193 1949.32 436.443 1950.11 437.742L1950.58 438.51C1952.63 441.739 1954.61 444.89 1956.53 447.961 1958.44 451.032 1959.75 453.119 1960.46 454.222 1961.09 455.206 1961.29 456.27 1961.06 457.412 1960.82 458.593 1960.21 459.499 1959.22 460.129 1958.23 460.759 1957.17 460.956 1956.02 460.719 1954.84 460.483 1953.93 459.873 1953.3 458.888 1952.55 457.707 1951.21 455.571 1949.28 452.48 1947.34 449.388 1945.37 446.228 1943.36 442.999 1941.98 440.834 1940.76 438.885 1939.69 437.152L1937.97 434.376 1937.92 434.258 1937.8 434.08C1937.8 434.08 1937.78 434.061 1937.74 434.021 1937.7 433.982 1937.68 433.962 1937.68 433.962L1935.02 430.477C1934.9 430.32 1934.8 430.202 1934.72 430.123 1934.17 429.572 1933.5 429.296 1932.71 429.296 1931.6 429.099 1930.54 429.237 1929.51 429.71 1928.88 430.103 1928.35 430.595 1927.91 431.186 1927.48 431.816 1927.2 432.505 1927.08 433.253 1926.97 434.08 1927.1 434.848 1927.5 435.557 1929.51 436.345 1931.33 437.447 1932.94 438.865 1934.25 440.204 1935.39 441.68 1936.38 443.295 1936.97 444.201 1937.59 445.185 1938.24 446.248 1938.89 447.311 1939.55 448.394 1940.22 449.497 1940.74 450.324 1941.24 451.151 1941.73 451.977 1942.23 452.804 1942.69 453.612 1943.12 454.399L1943.48 454.99C1944.19 456.211 1944.85 457.313 1945.46 458.298 1946.07 459.282 1946.58 460.089 1946.97 460.719 1947.6 461.704 1947.8 462.767 1947.56 463.909 1947.33 465.09 1946.71 465.996 1945.73 466.626 1944.74 467.256 1943.68 467.453 1942.53 467.217 1941.35 466.98 1940.44 466.37 1939.81 465.386 1939.34 464.637 1938.74 463.673 1938.03 462.491 1937.32 461.31 1936.57 460.03 1935.78 458.652L1935.19 457.648C1934.8 457.018 1934.41 456.388 1934.04 455.758 1933.66 455.128 1933.3 454.517 1932.94 453.927 1932.27 452.824 1931.63 451.771 1931.02 450.767 1930.41 449.762 1929.83 448.847 1929.27 448.02 1929 447.587 1928.74 447.203 1928.51 446.868 1928.27 446.534 1928.05 446.248 1927.85 446.012 1927.74 445.854 1927.6 445.657 1927.44 445.421 1927.36 445.342 1927.3 445.283 1927.26 445.244 1926.32 444.417 1925.25 443.767 1924.07 443.295 1923.75 443.255 1923.44 443.177 1923.12 443.059 1922.01 443.216 1921.01 443.61 1920.1 444.24 1919.43 445.027 1919 445.933 1918.8 446.957 1918.64 448.02 1918.76 449.024 1919.15 449.969L1920.52 452.45C1922.33 453.238 1923.97 454.262 1925.43 455.521 1926.61 456.664 1927.62 457.904 1928.45 459.243 1928.92 459.952 1929.39 460.709 1929.87 461.517 1930.34 462.324 1930.81 463.141 1931.29 463.968 1931.56 464.48 1931.85 464.982 1932.14 465.474 1932.44 465.966 1932.71 466.449 1932.94 466.921L1933 466.98 1933.18 467.276C1933.81 468.378 1934.4 469.412 1934.96 470.377 1935.51 471.341 1936 472.178 1936.44 472.887 1936.75 473.36 1936.97 473.871 1937.09 474.423 1937.2 474.974 1937.2 475.545 1937.09 476.136 1936.97 476.687 1936.75 477.199 1936.44 477.671 1936.12 478.144 1935.73 478.538 1935.25 478.853 1934.78 479.168 1934.25 479.365 1933.65 479.443 1933.1 479.562 1932.55 479.562 1932 479.443 1931.44 479.286 1930.93 479.05 1930.46 478.735 1929.98 478.42 1929.59 478.006 1929.27 477.494 1928.72 476.628 1928.12 475.624 1927.47 474.482 1926.82 473.34 1926.16 472.178 1925.49 470.997 1925.21 470.524 1924.93 470.052 1924.66 469.579 1924.38 469.107 1924.13 468.654 1923.89 468.221 1923.42 467.394 1922.96 466.616 1922.53 465.888 1922.09 465.159 1921.68 464.5 1921.28 463.909 1920.81 463.2 1920.48 462.708 1920.28 462.432 1920.12 462.235 1919.94 462.058 1919.75 461.901 1918.8 461.074 1917.75 460.444 1916.61 460.011 1916.29 459.971 1916 459.892 1915.72 459.774 1914.54 459.971 1913.47 460.404 1912.53 461.074 1911.85 461.94 1911.42 462.905 1911.22 463.968 1911.03 465.031 1911.11 466.075 1911.46 467.098L1922.23 485.291 1937.03 509.39C1941.13 514.745 1946.5 518.092 1953.12 519.431 1959.79 520.731 1966.05 519.707 1971.89 516.36L1971.89 516.301C1976.03 513.662 1979.2 510.178 1981.41 505.846 1983.66 501.515 1984.67 496.907 1984.43 492.025L1984.43 451.564C1984.35 450.816 1984.16 450.127 1983.84 449.497 1983.45 448.827 1982.97 448.256 1982.42 447.784 1981.83 447.311 1981.18 446.977 1980.47 446.78 1979.76 446.583 1979.05 446.524 1978.34 446.603 1977.19 446.603 1976.21 446.996 1975.38 447.784 1974.55 448.532 1974.08 449.477 1973.96 450.619 1974.79 452.115 1975.53 453.444 1976.18 454.606 1976.83 455.768 1977.33 456.644 1977.69 457.234 1978.2 458.219 1978.3 459.262 1977.98 460.365 1977.67 461.468 1977.01 462.294 1976.03 462.846 1975.04 463.436 1974 463.594 1972.89 463.318 1971.75 463.043 1970.88 462.432 1970.29 461.487 1969.93 460.818 1969.4 459.863 1968.69 458.623 1967.98 457.382 1967.17 455.955 1966.26 454.34L1965.97 453.809 1965.97 453.572C1965.97 453.572 1965.95 453.533 1965.91 453.454 1965.87 453.415 1965.85 453.395 1965.85 453.395L1953.07 430.536C1952.71 429.828 1952.2 429.276 1951.53 428.883 1950.86 428.449 1950.13 428.252 1949.34 428.292ZM1873.11 426.284C1873.43 426.284 1873.72 426.382 1874 426.579L1881.4 431.54C1881.75 431.777 1881.99 432.072 1882.11 432.426 1882.26 432.82 1882.3 433.214 1882.22 433.608 1882.11 434.041 1881.89 434.395 1881.57 434.671 1881.26 434.947 1880.9 435.104 1880.51 435.144L1871.69 436.266C1871.33 436.305 1871.02 436.266 1870.74 436.148 1870.43 436.03 1870.17 435.852 1869.97 435.616 1869.74 435.38 1869.58 435.104 1869.5 434.789 1869.42 434.474 1869.42 434.159 1869.5 433.844L1870.98 427.76C1871.06 427.445 1871.2 427.17 1871.39 426.933 1871.63 426.697 1871.89 426.52 1872.16 426.402 1872.48 426.284 1872.79 426.244 1873.11 426.284ZM1950 419.893C1950.83 419.95 1951.68 420.091 1952.53 420.318 1955.93 421.184 1958.53 423.133 1960.35 426.166L1969.16 441.877C1970.35 440.696 1971.71 439.771 1973.25 439.101 1974.79 438.432 1976.4 438.077 1978.1 438.038 1981.89 437.841 1985.22 438.983 1988.1 441.464 1990.98 443.945 1992.6 447.075 1992.95 450.855 1992.95 451.013 1992.95 451.17 1992.95 451.328L1992.95 491.493C1993.27 497.951 1991.95 504.054 1988.99 509.804 1986.03 515.513 1981.81 520.101 1976.32 523.566 1970.92 526.795 1965.06 528.39 1958.75 528.35 1954.6 528.35 1950.54 527.661 1946.56 526.283 1942.81 527.661 1938.9 528.35 1934.84 528.35 1929.2 528.429 1923.85 527.208 1918.8 524.688 1913.75 522.168 1909.55 518.663 1906.19 514.175L1891.4 490.016 1880.74 472.06C1879.21 469.107 1878.77 465.996 1879.44 462.728 1880.11 459.459 1881.73 456.781 1884.3 454.695 1885.28 454.025 1886.31 453.474 1887.37 453.041 1886.39 450.245 1886.33 447.449 1887.2 444.653 1888.06 441.818 1889.68 439.534 1892.05 437.802 1893 437.211 1893.98 436.719 1895.01 436.325 1894.85 435.222 1894.85 434.12 1895.01 433.017 1895.32 431.009 1896.03 429.178 1897.14 427.524 1898.28 425.831 1899.7 424.472 1901.4 423.448 1903.81 422.109 1906.39 421.539 1909.15 421.736 1911.91 421.972 1914.38 422.936 1916.55 424.63 1917.26 423.882 1918.07 423.212 1918.98 422.622 1921.86 420.928 1924.91 420.475 1928.15 421.263 1930 420.751 1931.88 420.613 1933.77 420.85 1936.26 421.125 1938.45 422.07 1940.34 423.685 1941.09 422.897 1941.92 422.228 1942.83 421.676 1945.11 420.318 1947.5 419.724 1950 419.893ZM1520.07 414.766 1527.82 414.766 1527.82 507.205 1520.07 507.205ZM1474.4 414.766 1482.27 414.766 1482.27 451.328C1485.39 450.934 1488.5 450.54 1491.62 450.146 1495.57 449.635 1498.66 449.379 1500.91 449.379 1505.29 449.379 1507.48 451.525 1507.48 455.817L1507.48 494.86C1507.48 498.404 1506.32 501.347 1503.99 503.69 1501.66 506.033 1498.74 507.205 1495.23 507.205L1474.4 507.205ZM1317.57 414.766 1341.42 414.766C1343.35 414.766 1344.95 415.376 1346.21 416.597 1347.48 417.818 1348.11 419.393 1348.11 421.322L1348.11 442.822 1339.82 442.822 1339.82 422.031 1319.23 422.031 1319.23 499.94 1339.82 499.94 1339.82 477.199 1348.11 477.199 1348.11 500.648C1348.11 502.578 1347.48 504.153 1346.21 505.374 1344.95 506.594 1343.35 507.205 1341.42 507.205L1317.57 507.205C1315.64 507.205 1314.06 506.594 1312.83 505.374 1311.61 504.153 1311 502.578 1311 500.648L1311 421.322C1311 419.393 1311.61 417.818 1312.83 416.597 1314.06 415.376 1315.64 414.766 1317.57 414.766ZM1882.46 412.521C1882.78 412.561 1883.05 412.679 1883.29 412.875 1883.53 413.033 1883.72 413.25 1883.88 413.525L1887.67 421.263C1887.83 421.617 1887.89 421.992 1887.85 422.385 1887.77 422.779 1887.59 423.114 1887.31 423.389 1887.04 423.665 1886.7 423.862 1886.31 423.98 1885.95 424.059 1885.58 424.019 1885.18 423.862L1877.25 420.554C1876.98 420.436 1876.74 420.259 1876.54 420.023 1876.35 419.786 1876.21 419.511 1876.13 419.196 1876.05 418.881 1876.07 418.566 1876.19 418.251 1876.27 417.935 1876.41 417.68 1876.6 417.483L1880.74 413.112C1880.98 412.875 1881.24 412.698 1881.51 412.58 1881.83 412.501 1882.15 412.482 1882.46 412.521ZM1897.79 405.02C1898.07 405.099 1898.34 405.236 1898.62 405.433 1898.85 405.63 1899.03 405.866 1899.15 406.142 1899.27 406.457 1899.33 406.772 1899.33 407.087L1898.74 415.888C1898.7 416.282 1898.56 416.636 1898.32 416.951 1898.09 417.305 1897.77 417.542 1897.38 417.66 1896.98 417.778 1896.59 417.758 1896.19 417.601 1895.8 417.483 1895.48 417.266 1895.24 416.951L1890.04 409.922C1889.88 409.686 1889.76 409.41 1889.68 409.095 1889.64 408.78 1889.66 408.465 1889.74 408.15 1889.86 407.835 1890.02 407.579 1890.21 407.382 1890.45 407.146 1890.73 406.969 1891.04 406.851L1896.84 405.079C1897.16 405 1897.47 404.98 1897.79 405.02Z" fill-rule="evenodd"/></g></svg>